<svg width="32" height="33" viewBox="0 0 32 33" fill="none" xmlns="http://www.w3.org/2000/svg">
<g clip-path="url(#clip0_0_27)">
<path d="M15.9775 0C7.17901 0 0.020813 7.40194 0.020813 16.5C0.020813 25.5974 7.17901 33 15.9775 33C24.7753 33 31.9342 25.5974 31.9342 16.5C31.9342 7.40194 24.7766 0 15.9775 0ZM19.9458 17.0809H17.3497V26.6488H13.5029C13.5029 26.6488 13.5029 21.4209 13.5029 17.0809H11.6743V13.6993H13.5029V11.512C13.5029 9.94546 14.2228 7.49764 17.3851 7.49764L20.2356 7.50894V10.7915C20.2356 10.7915 18.5035 10.7915 18.1667 10.7915C17.8299 10.7915 17.351 10.9657 17.351 11.7127V13.6999H20.2819L19.9458 17.0809Z" fill="#0067FF"/>
</g>
<defs>
<clipPath id="clip0_0_27">
<rect width="31.9133" height="33" fill="white" transform="translate(0.020813)"/>
</clipPath>
</defs>
</svg>
