<svg width="32" height="33" viewBox="0 0 32 33" fill="none" xmlns="http://www.w3.org/2000/svg">
<g clip-path="url(#clip0_0_42)">
<path d="M19.0975 16.5C19.0975 18.2443 17.7302 19.6582 16.0433 19.6582C14.3565 19.6582 12.9891 18.2443 12.9891 16.5C12.9891 14.7557 14.3565 13.3418 16.0433 13.3418C17.7302 13.3418 19.0975 14.7557 19.0975 16.5Z" fill="#0067FF"/>
<path d="M23.186 10.9125C23.0392 10.5011 22.805 10.1287 22.5006 9.82307C22.2051 9.50836 21.8452 9.26616 21.4471 9.11434C21.1243 8.98468 20.6392 8.83035 19.7459 8.7883C18.7795 8.74273 18.4898 8.73291 16.0433 8.73291C13.5966 8.73291 13.3069 8.74248 12.3407 8.78805C11.4474 8.83035 10.9621 8.98468 10.6395 9.11434C10.2415 9.26616 9.88134 9.50836 9.586 9.82307C9.28165 10.1287 9.04743 10.5008 8.90037 10.9125C8.77497 11.2463 8.62572 11.7481 8.58506 12.6719C8.54099 13.6709 8.53149 13.9705 8.53149 16.5005C8.53149 19.0303 8.54099 19.3299 8.58506 20.3292C8.62572 21.2529 8.77497 21.7545 8.90037 22.0883C9.04743 22.4999 9.28141 22.8721 9.58576 23.1777C9.88134 23.4924 10.2412 23.7346 10.6393 23.8864C10.9622 24.0164 11.4474 24.1707 12.3407 24.2127C13.3069 24.2583 13.5964 24.2679 16.0431 24.2679C18.49 24.2679 18.7798 24.2583 19.7457 24.2127C20.639 24.1707 21.1243 24.0164 21.4471 23.8864C22.2462 23.5677 22.8778 22.9146 23.186 22.0883C23.3114 21.7545 23.4607 21.2529 23.5016 20.3292C23.5457 19.3299 23.5549 19.0303 23.5549 16.5005C23.5549 13.9705 23.5457 13.6709 23.5016 12.6719C23.4609 11.7481 23.3117 11.2463 23.186 10.9125V10.9125ZM16.0433 21.3655C13.4447 21.3655 11.3381 19.1874 11.3381 16.5003C11.3381 13.8131 13.4447 11.6351 16.0433 11.6351C18.6417 11.6351 20.7483 13.8131 20.7483 16.5003C20.7483 19.1874 18.6417 21.3655 16.0433 21.3655ZM20.9343 12.5797C20.3271 12.5797 19.8348 12.0706 19.8348 11.4427C19.8348 10.8148 20.3271 10.3057 20.9343 10.3057C21.5416 10.3057 22.0339 10.8148 22.0339 11.4427C22.0336 12.0706 21.5416 12.5797 20.9343 12.5797Z" fill="#0067FF"/>
<path d="M16.0433 0C7.23206 0 0.0866699 7.38869 0.0866699 16.5C0.0866699 25.6113 7.23206 33 16.0433 33C24.8546 33 32 25.6113 32 16.5C32 7.38869 24.8546 0 16.0433 0ZM25.1507 20.4062C25.1064 21.4148 24.9513 22.1034 24.7248 22.7061C24.2488 23.9788 23.2759 24.9849 22.0451 25.4771C21.4625 25.7113 20.7963 25.8714 19.8212 25.9175C18.8441 25.9635 18.5319 25.9746 16.0436 25.9746C13.555 25.9746 13.2431 25.9635 12.2658 25.9175C11.2906 25.8714 10.6245 25.7113 10.0418 25.4771C9.4302 25.2392 8.87652 24.8663 8.41878 24.3842C7.95276 23.9111 7.59217 23.3383 7.36208 22.7061C7.13565 22.1036 6.98055 21.4148 6.93624 20.4065C6.89119 19.3959 6.88072 19.0731 6.88072 16.5C6.88072 13.9269 6.89119 13.6041 6.93599 12.5938C6.98031 11.5852 7.13516 10.8966 7.36159 10.2939C7.59168 9.66167 7.95252 9.0889 8.41878 8.61582C8.87628 8.13368 9.4302 7.76081 10.0416 7.52289C10.6245 7.28874 11.2904 7.12862 12.2658 7.08254C13.2428 7.03647 13.555 7.02539 16.0433 7.02539C18.5317 7.02539 18.8438 7.03647 19.8209 7.08279C20.7963 7.12862 21.4622 7.28874 22.0451 7.52264C22.6565 7.76056 23.2104 8.13368 23.6681 8.61582C24.1342 9.08915 24.495 9.66167 24.7248 10.2939C24.9515 10.8966 25.1064 11.5852 25.1509 12.5938C25.1955 13.6041 25.206 13.9269 25.206 16.5C25.206 19.0731 25.1955 19.3959 25.1507 20.4062V20.4062Z" fill="#0067FF"/>
</g>
<defs>
<clipPath id="clip0_0_42">
<rect width="31.9133" height="33" fill="white" transform="translate(0.0866699)"/>
</clipPath>
</defs>
</svg>
