<svg width="33" height="33" viewBox="0 0 33 33" fill="none" xmlns="http://www.w3.org/2000/svg">
<g clip-path="url(#clip0_0_31)">
<path fill-rule="evenodd" clip-rule="evenodd" d="M22.6775 13.135C22.6835 13.2804 22.6875 13.4258 22.6875 13.5733C22.6875 18.0458 19.3944 23.2042 13.3728 23.2042C11.5238 23.2042 9.80347 22.6442 8.3544 21.6841C8.61071 21.715 8.871 21.7305 9.13528 21.7305C10.6691 21.7305 12.0803 21.1901 13.2012 20.2816C11.7681 20.2548 10.5594 19.2761 10.1425 17.9314C10.343 17.9706 10.5474 17.9912 10.7589 17.9912C11.0571 17.9912 11.3463 17.9499 11.6215 17.8726C10.1236 17.5622 8.99566 16.1937 8.99566 14.554V14.5107C9.43647 14.7644 9.94209 14.917 10.4786 14.9346C9.60002 14.3272 9.02159 13.2908 9.02159 12.1172C9.02159 11.4964 9.18315 10.9147 9.46539 10.4146C11.08 12.4627 13.4925 13.8105 16.2131 13.9518C16.1572 13.7043 16.1283 13.4454 16.1283 13.1804C16.1283 11.3108 17.5943 9.79481 19.4014 9.79481C20.3438 9.79481 21.1945 10.2063 21.7909 10.8642C22.5369 10.7126 23.238 10.4311 23.8703 10.0433C23.6259 10.8333 23.1063 11.4964 22.4312 11.9161C23.0934 11.8336 23.7237 11.6521 24.3111 11.3829C23.8723 12.0615 23.3168 12.6576 22.6775 13.135V13.135ZM16.3327 0C7.51967 0 0.376068 7.38684 0.376068 16.5C0.376068 25.6121 7.51967 33 16.3327 33C25.1458 33 32.2894 25.6121 32.2894 16.5C32.2894 7.38684 25.1458 0 16.3327 0" fill="#0067FF"/>
</g>
<defs>
<clipPath id="clip0_0_31">
<rect width="31.9133" height="33" fill="white" transform="translate(0.376068)"/>
</clipPath>
</defs>
</svg>
