<svg width="33" height="33" viewBox="0 0 33 33" fill="none" xmlns="http://www.w3.org/2000/svg">
<g clip-path="url(#clip0_0_36)">
<path d="M14.4763 19.1615L18.9022 16.5063L14.4763 13.8381V19.1615Z" fill="#0067FF"/>
<path d="M16.688 0C13.5321 0 10.447 0.967708 7.82296 2.78075C5.19889 4.59379 3.15369 7.17074 1.94596 10.1857C0.738237 13.2007 0.422241 16.5183 1.03793 19.719C1.65363 22.9197 3.17335 25.8597 5.40494 28.1673C7.63652 30.4748 10.4797 32.0463 13.575 32.683C16.6703 33.3196 19.8787 32.9929 22.7944 31.744C25.7101 30.4952 28.2022 28.3803 29.9555 25.6669C31.7089 22.9535 32.6447 19.7634 32.6447 16.5C32.6447 12.1239 30.9636 7.92709 27.9711 4.83274C24.9786 1.73839 20.92 0 16.688 0V0ZM25.0863 19.4201C25.0866 19.8516 25.0046 20.279 24.8451 20.6778C24.6856 21.0766 24.4516 21.4389 24.1566 21.7442C23.8616 22.0494 23.5113 22.2916 23.1258 22.4568C22.7402 22.622 22.327 22.707 21.9096 22.707H11.4664C11.0491 22.707 10.6358 22.622 10.2503 22.4568C9.86473 22.2916 9.51444 22.0494 9.21944 21.7442C8.92443 21.4389 8.69048 21.0766 8.53097 20.6778C8.37145 20.279 8.28949 19.8516 8.28976 19.4201V13.5799C8.28949 13.1484 8.37145 12.721 8.53097 12.3222C8.69048 11.9234 8.92443 11.5611 9.21944 11.2558C9.51444 10.9506 9.86473 10.7084 10.2503 10.5432C10.6358 10.378 11.0491 10.293 11.4664 10.293H21.9096C22.327 10.293 22.7402 10.378 23.1258 10.5432C23.5113 10.7084 23.8616 10.9506 24.1566 11.2558C24.4516 11.5611 24.6856 11.9234 24.8451 12.3222C25.0046 12.721 25.0866 13.1484 25.0863 13.5799V19.4201Z" fill="#0067FF"/>
</g>
<defs>
<clipPath id="clip0_0_36">
<rect width="31.9133" height="33" fill="white" transform="translate(0.731384)"/>
</clipPath>
</defs>
</svg>
