<svg width="161" height="40" viewBox="0 0 161 40" fill="none" xmlns="http://www.w3.org/2000/svg">
<path d="M53.7216 7.54545H57.5909L62.7727 20.1932H62.9773L68.1591 7.54545H72.0284V25H68.9943V13.0085H68.8324L64.0085 24.9489H61.7415L56.9176 12.983H56.7557V25H53.7216V7.54545ZM81.1307 25.2557C79.8182 25.2557 78.6847 24.983 77.7301 24.4375C76.7813 23.8864 76.0511 23.108 75.5398 22.1023C75.0284 21.0909 74.7727 19.9006 74.7727 18.5312C74.7727 17.1847 75.0284 16.0028 75.5398 14.9858C76.0568 13.9631 76.7784 13.1676 77.7045 12.5994C78.6307 12.0256 79.7188 11.7386 80.9688 11.7386C81.7756 11.7386 82.5369 11.8693 83.2528 12.1307C83.9744 12.3864 84.6108 12.7841 85.1619 13.3239C85.7188 13.8636 86.1563 14.5511 86.4744 15.3864C86.7926 16.2159 86.9517 17.2045 86.9517 18.3523V19.2983H76.2216V17.2188H83.9943C83.9886 16.6278 83.8608 16.1023 83.6108 15.642C83.3608 15.1761 83.0114 14.8097 82.5625 14.5426C82.1193 14.2756 81.6023 14.142 81.0114 14.142C80.3807 14.142 79.8267 14.2955 79.3494 14.6023C78.8722 14.9034 78.5 15.3011 78.233 15.7955C77.9716 16.2841 77.8381 16.821 77.8324 17.4062V19.2216C77.8324 19.983 77.9716 20.6364 78.25 21.1818C78.5284 21.7216 78.9176 22.1364 79.4176 22.4261C79.9176 22.7102 80.5028 22.8523 81.1733 22.8523C81.6222 22.8523 82.0284 22.7898 82.392 22.6648C82.7557 22.5341 83.071 22.3438 83.3381 22.0938C83.6051 21.8438 83.8068 21.5341 83.9432 21.1648L86.8239 21.4886C86.642 22.25 86.2955 22.9148 85.7841 23.483C85.2784 24.0455 84.6307 24.483 83.8409 24.7955C83.0511 25.1023 82.1477 25.2557 81.1307 25.2557ZM94.4197 25.2301C93.3913 25.2301 92.4709 24.9659 91.6584 24.4375C90.8459 23.9091 90.2038 23.142 89.7322 22.1364C89.2607 21.1307 89.0249 19.9091 89.0249 18.4716C89.0249 17.017 89.2635 15.7898 89.7408 14.7898C90.2237 13.7841 90.8743 13.0256 91.6925 12.5142C92.5107 11.9972 93.4226 11.7386 94.4283 11.7386C95.1953 11.7386 95.826 11.8693 96.3203 12.1307C96.8146 12.3864 97.2067 12.696 97.4964 13.0597C97.7862 13.4176 98.0107 13.7557 98.1697 14.0739H98.2976V7.54545H101.391V25H98.3572V22.9375H98.1697C98.0107 23.2557 97.7805 23.5937 97.4794 23.9517C97.1783 24.304 96.7805 24.6051 96.2862 24.8551C95.7919 25.1051 95.1697 25.2301 94.4197 25.2301ZM95.2805 22.6989C95.9339 22.6989 96.4908 22.5227 96.951 22.1705C97.4112 21.8125 97.7607 21.3153 97.9993 20.679C98.2379 20.0426 98.3572 19.3011 98.3572 18.4545C98.3572 17.608 98.2379 16.8722 97.9993 16.2472C97.7663 15.6222 97.4197 15.1364 96.9595 14.7898C96.505 14.4432 95.9453 14.2699 95.2805 14.2699C94.593 14.2699 94.0192 14.4489 93.5589 14.8068C93.0987 15.1648 92.7521 15.6591 92.5192 16.2898C92.2862 16.9205 92.1697 17.642 92.1697 18.4545C92.1697 19.2727 92.2862 20.0028 92.5192 20.6449C92.7578 21.2812 93.1072 21.7841 93.5675 22.1534C94.0334 22.517 94.6044 22.6989 95.2805 22.6989ZM104.679 25V11.9091H107.764V25H104.679ZM106.23 10.0511C105.741 10.0511 105.321 9.8892 104.969 9.56534C104.616 9.23579 104.44 8.84091 104.44 8.38068C104.44 7.91477 104.616 7.51989 104.969 7.19602C105.321 6.86648 105.741 6.7017 106.23 6.7017C106.724 6.7017 107.145 6.86648 107.491 7.19602C107.844 7.51989 108.02 7.91477 108.02 8.38068C108.02 8.84091 107.844 9.23579 107.491 9.56534C107.145 9.8892 106.724 10.0511 106.23 10.0511ZM116.647 25.2557C115.34 25.2557 114.218 24.9688 113.281 24.3949C112.349 23.821 111.63 23.0284 111.124 22.017C110.624 21 110.374 19.8295 110.374 18.5057C110.374 17.1761 110.63 16.0028 111.141 14.9858C111.653 13.9631 112.374 13.1676 113.306 12.5994C114.244 12.0256 115.352 11.7386 116.63 11.7386C117.692 11.7386 118.633 11.9347 119.451 12.3267C120.275 12.7131 120.931 13.2614 121.42 13.9716C121.908 14.6761 122.187 15.5 122.255 16.4432H119.306C119.187 15.8125 118.903 15.2869 118.454 14.8665C118.011 14.4403 117.417 14.2273 116.673 14.2273C116.042 14.2273 115.488 14.3977 115.011 14.7386C114.533 15.0739 114.161 15.5568 113.894 16.1875C113.633 16.8182 113.502 17.5739 113.502 18.4545C113.502 19.3466 113.633 20.1136 113.894 20.7557C114.156 21.392 114.522 21.8835 114.994 22.2301C115.471 22.571 116.031 22.7415 116.673 22.7415C117.127 22.7415 117.533 22.6562 117.891 22.4858C118.255 22.3097 118.559 22.0568 118.803 21.7273C119.048 21.3977 119.215 20.9972 119.306 20.5256H122.255C122.181 21.4517 121.908 22.2727 121.437 22.9886C120.965 23.6989 120.323 24.2557 119.511 24.6591C118.698 25.0568 117.744 25.2557 116.647 25.2557ZM128.555 25.2642C127.726 25.2642 126.979 25.1165 126.314 24.821C125.655 24.5199 125.132 24.0767 124.746 23.4915C124.365 22.9062 124.175 22.1847 124.175 21.3267C124.175 20.5881 124.311 19.9773 124.584 19.4943C124.857 19.0114 125.229 18.625 125.7 18.3352C126.172 18.0455 126.703 17.8267 127.294 17.679C127.891 17.5256 128.507 17.4148 129.143 17.3466C129.911 17.267 130.533 17.196 131.01 17.1335C131.487 17.0653 131.834 16.9631 132.05 16.8267C132.271 16.6847 132.382 16.4659 132.382 16.1705V16.1193C132.382 15.4773 132.192 14.9801 131.811 14.6278C131.43 14.2756 130.882 14.0994 130.166 14.0994C129.411 14.0994 128.811 14.2642 128.368 14.5938C127.93 14.9233 127.635 15.3125 127.482 15.7614L124.601 15.3523C124.828 14.5568 125.203 13.892 125.726 13.358C126.249 12.8182 126.888 12.4148 127.643 12.1477C128.399 11.875 129.234 11.7386 130.149 11.7386C130.78 11.7386 131.408 11.8125 132.033 11.9602C132.658 12.108 133.229 12.3523 133.746 12.6932C134.263 13.0284 134.678 13.4858 134.99 14.0653C135.308 14.6449 135.467 15.3693 135.467 16.2386V25H132.501V23.2017H132.399C132.212 23.5653 131.947 23.9062 131.607 24.2244C131.271 24.5369 130.848 24.7898 130.337 24.983C129.831 25.1705 129.237 25.2642 128.555 25.2642ZM129.357 22.9972C129.976 22.9972 130.513 22.875 130.967 22.6307C131.422 22.3807 131.771 22.0511 132.016 21.642C132.266 21.233 132.391 20.7869 132.391 20.304V18.7614C132.294 18.8409 132.129 18.9148 131.896 18.983C131.669 19.0511 131.413 19.1108 131.129 19.1619C130.845 19.2131 130.564 19.2585 130.286 19.2983C130.007 19.3381 129.766 19.3722 129.561 19.4006C129.101 19.4631 128.689 19.5653 128.325 19.7074C127.962 19.8494 127.675 20.0483 127.464 20.304C127.254 20.554 127.149 20.8778 127.149 21.2756C127.149 21.8438 127.357 22.2727 127.771 22.5625C128.186 22.8523 128.714 22.9972 129.357 22.9972ZM145.107 11.9091V14.2955H137.581V11.9091H145.107ZM139.439 8.77273H142.524V21.0625C142.524 21.4773 142.587 21.7955 142.712 22.017C142.842 22.233 143.013 22.3807 143.223 22.4602C143.433 22.5398 143.666 22.5795 143.922 22.5795C144.115 22.5795 144.291 22.5653 144.45 22.5369C144.615 22.5085 144.74 22.483 144.825 22.4602L145.345 24.8722C145.18 24.929 144.945 24.9915 144.638 25.0597C144.337 25.1278 143.967 25.1676 143.53 25.179C142.757 25.2017 142.061 25.0852 141.442 24.8295C140.822 24.5682 140.331 24.1648 139.967 23.6193C139.609 23.0739 139.433 22.392 139.439 21.5739V8.77273ZM153.342 25.2557C152.029 25.2557 150.896 24.983 149.941 24.4375C148.992 23.8864 148.262 23.108 147.751 22.1023C147.239 21.0909 146.984 19.9006 146.984 18.5312C146.984 17.1847 147.239 16.0028 147.751 14.9858C148.268 13.9631 148.989 13.1676 149.915 12.5994C150.842 12.0256 151.93 11.7386 153.18 11.7386C153.987 11.7386 154.748 11.8693 155.464 12.1307C156.185 12.3864 156.822 12.7841 157.373 13.3239C157.93 13.8636 158.367 14.5511 158.685 15.3864C159.004 16.2159 159.163 17.2045 159.163 18.3523V19.2983H148.433V17.2188H156.205C156.2 16.6278 156.072 16.1023 155.822 15.642C155.572 15.1761 155.222 14.8097 154.773 14.5426C154.33 14.2756 153.813 14.142 153.222 14.142C152.592 14.142 152.038 14.2955 151.56 14.6023C151.083 14.9034 150.711 15.3011 150.444 15.7955C150.183 16.2841 150.049 16.821 150.043 17.4062V19.2216C150.043 19.983 150.183 20.6364 150.461 21.1818C150.739 21.7216 151.129 22.1364 151.629 22.4261C152.129 22.7102 152.714 22.8523 153.384 22.8523C153.833 22.8523 154.239 22.7898 154.603 22.6648C154.967 22.5341 155.282 22.3438 155.549 22.0938C155.816 21.8438 156.018 21.5341 156.154 21.1648L159.035 21.4886C158.853 22.25 158.506 22.9148 157.995 23.483C157.489 24.0455 156.842 24.483 156.052 24.7955C155.262 25.1023 154.359 25.2557 153.342 25.2557Z" fill="white"/>
<circle cx="20" cy="20" r="20" fill="#4C40F7"/>
<path d="M13.116 27H16.194V19.404L19.038 27H21.522L24.348 19.422V27H27.426V14.364H23.808L20.298 23.112L16.752 14.364H13.116V27Z" fill="white"/>
</svg>
