<svg width="50" height="50" viewBox="0 0 50 50" fill="none" xmlns="http://www.w3.org/2000/svg">
<path d="M18.3333 26.5833H17.5067C17.3307 26.0857 16.8612 25.7522 16.3333 25.75H14.25C13.5596 25.75 13 26.3096 13 27V35.75C13 36.4404 13.5596 37 14.25 37H16.3333C16.6869 36.9989 17.0232 36.8474 17.2583 36.5833H27.7083C28.3197 36.5836 28.9192 36.4153 29.4412 36.0971L37.25 31.3433C37.9282 30.9308 38.1882 30.0746 37.8541 29.3545C37.52 28.6345 36.6983 28.2802 35.9454 28.5317C27.2587 31.4279 28.2317 31.1667 27.5996 31.1667C28.1046 29.7658 26.8417 28.25 25.2633 28.25H23.0833C22.3147 28.2491 21.5691 27.9875 20.9683 27.5079C20.2198 26.9107 19.2909 26.5848 18.3333 26.5833V26.5833ZM16.3333 36.1667H14.25C14.0199 36.1667 13.8333 35.9801 13.8333 35.75V27C13.8333 26.7699 14.0199 26.5833 14.25 26.5833H16.3333C16.5635 26.5833 16.75 26.7699 16.75 27V35.75C16.75 35.9801 16.5635 36.1667 16.3333 36.1667ZM25.2633 29.0833C26.3687 29.0833 27.3283 30.2804 26.6675 31.1667H24.1354C23.3127 31.1659 22.5082 31.4095 21.8242 31.8667L21.5187 32.07C21.3273 32.1977 21.2756 32.4565 21.4033 32.6479C21.531 32.8394 21.7898 32.8911 21.9812 32.7633C22.5946 32.2766 23.3525 32.0081 24.1354 32C28.0971 32 28.0633 32.0375 28.4979 31.8933L36.2108 29.3221C36.5609 29.2069 36.9418 29.372 37.097 29.7063C37.2523 30.0406 37.1326 30.4381 36.8187 30.6313L29.0083 35.3854C28.6166 35.6239 28.1669 35.75 27.7083 35.75H17.5833V27.4167C18.53 27.4167 19.4292 27.3438 20.4479 28.1588C21.1966 28.7561 22.1256 29.082 23.0833 29.0833H25.2633Z" fill="#5D636B"/>
<path d="M28.8346 27.8333C32.5105 27.8333 35.5013 25.0466 35.5013 21.6212C35.5013 18.2812 29.3834 12.3662 29.123 12.1162C28.9618 11.9617 28.7075 11.9617 28.5463 12.1162C28.2859 12.3662 22.168 18.2812 22.168 21.6212C22.168 25.0466 25.1588 27.8333 28.8346 27.8333ZM28.8346 13C30.6996 14.8492 34.668 19.2733 34.668 21.6221C34.668 24.5871 32.0513 27 28.8346 27C25.618 27 23.0013 24.5871 23.0013 21.6212C23.0013 19.2725 26.9696 14.8483 28.8346 13V13Z" fill="#5D636B"/>
<path d="M25.9154 22.8332H27.582V24.4999C27.582 24.9601 27.9551 25.3332 28.4154 25.3332H29.2487C29.7089 25.3332 30.082 24.9601 30.082 24.4999V22.8332H31.7487C32.2089 22.8332 32.582 22.4601 32.582 21.9999V21.1666C32.582 20.7063 32.2089 20.3332 31.7487 20.3332H30.082V18.6666C30.082 18.2063 29.7089 17.8333 29.2487 17.8333H28.4154C27.9551 17.8333 27.582 18.2063 27.582 18.6666V20.3332H25.9154C25.4551 20.3332 25.082 20.7063 25.082 21.1666V21.9999C25.082 22.4601 25.4551 22.8332 25.9154 22.8332ZM25.9154 21.1666H27.582C28.0423 21.1666 28.4154 20.7935 28.4154 20.3332V18.6666H29.2487V20.3332C29.2487 20.7935 29.6218 21.1666 30.082 21.1666H31.7487V21.9999H30.082C29.6218 21.9999 29.2487 22.373 29.2487 22.8332V24.4999H28.4154V22.8332C28.4154 22.373 28.0423 21.9999 27.582 21.9999H25.9154V21.1666Z" fill="#5D636B"/>
</svg>
