<svg width="50" height="50" viewBox="0 0 50 50" fill="none" xmlns="http://www.w3.org/2000/svg">
<circle cx="25" cy="25" r="25" fill="#DCEEFE"/>
<g>
<path d="M31.7354 17.3059L26.5766 12.1152C26.5403 12.0787 26.4971 12.0497 26.4495 12.03C26.402 12.0102 26.351 12 26.2995 12H15.002C14.5748 12.0005 14.1652 12.1704 13.8631 12.4725C13.561 12.7746 13.3911 13.1841 13.3906 13.6113V35.3887C13.3911 35.8159 13.561 36.2254 13.8631 36.5275C14.1652 36.8296 14.5748 36.9995 15.002 37H30.2377C30.6649 36.9995 31.0745 36.8296 31.3766 36.5275C31.6787 36.2254 31.8486 35.8159 31.8491 35.3887V27.7617L36.9412 22.6695C37.3705 22.2402 37.6117 21.6579 37.6117 21.0508C37.6117 20.4437 37.3705 19.8615 36.9412 19.4322C36.5119 19.0029 35.9297 18.7617 35.3226 18.7617C34.7154 18.7617 34.1332 19.0029 33.7039 19.4322L31.8489 21.2872V17.5811C31.8489 17.478 31.8081 17.3791 31.7354 17.3059ZM32.4551 21.7859L34.5875 23.9183L27.1119 31.3939L24.9795 29.2615L32.4551 21.7859ZM33.5324 20.7085L35.6648 22.8409L35.1398 23.3659L33.0076 21.2334L33.5324 20.7085ZM24.6264 30.0127L26.3529 31.7393L24.1982 32.1411L24.6264 30.0127ZM26.8832 13.532L30.2962 16.9659H26.8832V13.532ZM31.0678 35.3887C31.0676 35.6087 30.98 35.8197 30.8244 35.9754C30.6688 36.131 30.4578 36.2185 30.2377 36.2188H15.002C14.7819 36.2185 14.5709 36.131 14.4153 35.9754C14.2597 35.8197 14.1721 35.6087 14.1719 35.3887V13.6113C14.1721 13.3913 14.2597 13.1803 14.4153 13.0246C14.5709 12.869 14.7819 12.7815 15.002 12.7812H26.1019V17.3564C26.1019 17.46 26.1431 17.5594 26.2163 17.6327C26.2896 17.7059 26.3889 17.7471 26.4925 17.7471H31.0677V22.0684L24.0907 29.0456C24.0363 29.1 23.9992 29.1693 23.984 29.2447L23.3183 32.5542C23.3057 32.6169 23.3086 32.6817 23.3269 32.7429C23.3452 32.8042 23.3782 32.86 23.4231 32.9055C23.4679 32.951 23.5233 32.9848 23.5843 33.004C23.6452 33.0231 23.71 33.027 23.7728 33.0153L27.1233 32.3906C27.2009 32.3762 27.2722 32.3386 27.328 32.2829L31.0678 28.543V35.3887ZM36.3887 19.9847C36.6701 20.2682 36.828 20.6514 36.828 21.0509C36.828 21.4503 36.6701 21.8336 36.3887 22.117L36.2172 22.2885L34.0849 20.1562L34.2563 19.9847C34.5393 19.7023 34.9227 19.5437 35.3225 19.5437C35.7222 19.5437 36.1057 19.7023 36.3887 19.9847ZM22.8652 30.3109C22.8652 30.4145 22.8241 30.5138 22.7508 30.5871C22.6776 30.6604 22.5782 30.7015 22.4746 30.7015H16.3758C16.2722 30.7015 16.1729 30.6604 16.0996 30.5871C16.0264 30.5138 15.9852 30.4145 15.9852 30.3109C15.9852 30.2073 16.0264 30.1079 16.0996 30.0347C16.1729 29.9614 16.2722 29.9203 16.3758 29.9203H22.4745C22.5258 29.9202 22.5766 29.9303 22.624 29.95C22.6714 29.9696 22.7145 29.9983 22.7508 30.0346C22.7871 30.0709 22.8158 30.114 22.8355 30.1614C22.8551 30.2088 22.8652 30.2596 22.8652 30.3109ZM15.9854 26.9066C15.9854 26.803 16.0265 26.7036 16.0998 26.6304C16.173 26.5571 16.2724 26.516 16.376 26.516H24.4343C24.5379 26.516 24.6373 26.5571 24.7105 26.6304C24.7838 26.7036 24.825 26.803 24.825 26.9066C24.825 27.0102 24.7838 27.1095 24.7105 27.1828C24.6373 27.2561 24.5379 27.2972 24.4343 27.2972H16.3758C16.2722 27.2972 16.1729 27.2561 16.0996 27.1828C16.0264 27.1095 15.9852 27.0102 15.9852 26.9066H15.9854ZM15.9854 23.5023C15.9854 23.3987 16.0265 23.2993 16.0998 23.2261C16.173 23.1528 16.2724 23.1117 16.376 23.1117H28.8639C28.9675 23.1117 29.0668 23.1528 29.1401 23.2261C29.2133 23.2993 29.2545 23.3987 29.2545 23.5023C29.2545 23.6059 29.2133 23.7053 29.1401 23.7785C29.0668 23.8518 28.9675 23.8929 28.8639 23.8929H16.3758C16.2722 23.8929 16.1729 23.8518 16.0996 23.7785C16.0264 23.7053 15.9852 23.6059 15.9852 23.5023H15.9854ZM15.9854 20.098C15.9854 19.9944 16.0265 19.8951 16.0998 19.8218C16.173 19.7486 16.2724 19.7074 16.376 19.7074H28.8639C28.9675 19.7074 29.0668 19.7486 29.1401 19.8218C29.2133 19.8951 29.2545 19.9944 29.2545 20.098C29.2545 20.2016 29.2133 20.301 29.1401 20.3743C29.0668 20.4475 28.9675 20.4887 28.8639 20.4887H16.3758C16.2722 20.4887 16.1729 20.4475 16.0996 20.3743C16.0264 20.301 15.9852 20.2016 15.9852 20.098H15.9854ZM15.9854 16.6937C15.9854 16.5901 16.0265 16.4908 16.0998 16.4175C16.173 16.3443 16.2724 16.3031 16.376 16.3031H24.6451C24.7487 16.3031 24.8481 16.3443 24.9213 16.4175C24.9946 16.4908 25.0357 16.5901 25.0357 16.6937C25.0357 16.7973 24.9946 16.8967 24.9213 16.97C24.8481 17.0432 24.7487 17.0844 24.6451 17.0844H16.3758C16.2722 17.0844 16.1729 17.0432 16.0996 16.97C16.0264 16.8967 15.9852 16.7973 15.9852 16.6937H15.9854Z" fill="#5D636B"/>
</g>
<defs>
<clipPath id="clip0_0_238">
<rect width="25" height="25" fill="white" transform="translate(13 12)"/>
</clipPath>
</defs>
</svg>
