<svg width="50" height="50" viewBox="0 0 50 50" fill="none" xmlns="http://www.w3.org/2000/svg">
<path d="M35.4245 17.86C36.3414 16.9843 36.5875 15.6166 36.0335 14.4763C35.4794 13.336 34.252 12.6843 32.997 12.8643C31.742 13.0441 30.7469 14.0143 30.5356 15.2643C30.324 16.5144 30.9446 17.7579 32.0705 18.3406C31.6028 18.7322 31.3317 19.3103 31.3295 19.9203V23.2529H30.0797V19.9203C30.0775 18.4448 28.9744 17.203 27.5095 17.0268C28.3723 16.2042 28.6475 14.9392 28.2045 13.8325C27.7615 12.7256 26.6895 12 25.4974 12C24.3052 12 23.2332 12.7256 22.7902 13.8325C22.3472 14.9392 22.6224 16.2042 23.4852 17.0268C22.0203 17.203 20.9172 18.4448 20.915 19.9203V23.2529H19.6653V19.9203C19.663 19.3103 19.3919 18.7322 18.9242 18.3406C20.0501 17.7579 20.6707 16.5144 20.4592 15.2643C20.2476 14.0143 19.2527 13.0441 17.9977 12.8643C16.7427 12.6843 15.5153 13.336 14.9613 14.4763C14.4072 15.6166 14.6533 16.9843 15.5703 17.86C14.1053 18.0361 13.0022 19.2779 13 20.7534V27.0021C13.0016 28.127 13.6499 29.1507 14.6663 29.6328V37H15.4995V29.8848C15.6362 29.9043 18.4155 29.9182 18.4155 29.9182C18.6456 29.9182 18.8321 30.1047 18.8321 30.3348V37H22.1647V29.085H25.0808V36.1669H23.4145V37H27.5802V36.1669H25.9139V29.085H28.83V37H32.1626V30.3348C32.1626 30.1047 32.3491 29.9182 32.5792 29.9182C32.5792 29.9182 35.3585 29.9043 35.4952 29.8848V37H36.3284V29.6328C37.3448 29.1507 37.9931 28.127 37.9947 27.0021V20.7534C37.9925 19.2779 36.8894 18.0361 35.4245 17.86V17.86ZM31.3295 15.7545C31.3295 14.6042 32.2621 13.6716 33.4123 13.6716C34.5626 13.6716 35.4952 14.6042 35.4952 15.7545C35.4952 16.9048 34.5626 17.8374 33.4123 17.8374C32.2625 17.836 31.3309 16.9044 31.3295 15.7545ZM26.3854 17.8374L25.4974 19.1705L24.6093 17.8374H26.3854ZM23.4145 14.9213C23.4145 13.7711 24.3471 12.8384 25.4974 12.8384C26.6476 12.8384 27.5802 13.7711 27.5802 14.9213C27.5802 16.0716 26.6476 17.0042 25.4974 17.0042C24.3475 17.0028 23.4159 16.0712 23.4145 14.9213ZM21.7481 19.9203C21.7516 18.8538 22.5616 17.9631 23.6228 17.8585L25.4974 20.67L27.372 17.8573C28.4337 17.9619 29.2437 18.8534 29.2466 19.9203V23.2529H27.5802V25.7524H23.4145V23.2529H21.7481V19.9203ZM15.4995 15.7545C15.4995 14.6042 16.4321 13.6716 17.5824 13.6716C18.7326 13.6716 19.6653 14.6042 19.6653 15.7545C19.6653 16.9048 18.7326 17.8374 17.5824 17.8374C16.4325 17.836 15.5009 16.9044 15.4995 15.7545ZM21.3316 36.1669H19.6653V30.3348C19.6653 29.6446 19.1057 29.085 18.4155 29.085H15.916C14.7662 29.0836 13.8346 28.152 13.8332 27.0021V20.7534C13.8346 19.6036 14.7662 18.672 15.916 18.6705H17.5824C18.2725 18.6705 18.8321 19.2301 18.8321 19.9203V24.0861H22.5813V25.7524H17.5824C17.3523 25.7524 17.1658 25.5659 17.1658 25.3358V20.3369H16.3326V25.3358C16.3326 26.026 16.8922 26.5855 17.5824 26.5855H19.2487C20.3985 26.587 21.3301 27.5186 21.3316 28.6684V36.1669ZM22.1314 28.2519C22.0402 27.6185 21.7429 27.0328 21.2854 26.5855H29.7093C29.2518 27.0328 28.9545 27.6185 28.8633 28.2519H22.1314ZM37.1615 27.0021C37.1601 28.152 36.2285 29.0836 35.0787 29.085H32.5792C31.889 29.085 31.3295 29.6446 31.3295 30.3348V36.1669H29.6631V28.6684C29.6646 27.5186 30.5962 26.587 31.746 26.5855H33.4123C34.1025 26.5855 34.6621 26.026 34.6621 25.3358V20.3369H33.8289V25.3358C33.8289 25.5659 33.6424 25.7524 33.4123 25.7524H28.4134V24.0861H32.1626V19.9203C32.1626 19.2301 32.7222 18.6705 33.4123 18.6705H35.0787C36.2285 18.672 37.1601 19.6036 37.1615 20.7534V27.0021Z" fill="#5D636B"/>
</svg>
