<svg width="31" height="32" viewBox="0 0 31 32" fill="none" xmlns="http://www.w3.org/2000/svg">
<path d="M28.1818 4.98291H2.81815C1.26174 4.98291 0 6.21722 0 7.73986V24.2814C0 25.804 1.26174 27.0383 2.81815 27.0383H28.1818C29.7382 27.0383 30.9999 25.804 30.9999 24.2814V7.73986C31 6.21722 29.7383 4.98291 28.1818 4.98291ZM2.81815 6.36139H28.1818C28.3428 6.36239 28.5024 6.39035 28.6538 6.44407L16.4582 18.3747C15.9344 18.8904 15.0823 18.8932 14.5551 18.3808C14.553 18.3787 14.5509 18.3767 14.5489 18.3747L2.34613 6.44407C2.4975 6.39035 2.65716 6.36233 2.81815 6.36139ZM1.40911 24.2813V7.73986C1.4019 7.6596 1.4019 7.57887 1.40911 7.49861L10.1314 16.0106L1.40911 24.5226C1.4019 24.4423 1.4019 24.3616 1.40911 24.2813ZM28.1818 25.6598H2.81815C2.65716 25.6588 2.4975 25.6308 2.34613 25.5771L11.1318 16.9824L13.5484 19.3465C14.6222 20.4009 16.3664 20.4041 17.4442 19.3537C17.4467 19.3513 17.4491 19.3489 17.4515 19.3465L19.8682 16.9824L28.6538 25.5771C28.5025 25.6308 28.3428 25.6588 28.1818 25.6598ZM29.5909 24.5226L20.8686 16.0106L29.5909 7.49861C29.5981 7.57887 29.5981 7.6596 29.5909 7.73986V24.2814C29.5981 24.3616 29.5981 24.4423 29.5909 24.5226Z" fill="#0067FF"/>
</svg>
