<svg width="31" height="32" viewBox="0 0 31 32" fill="none" xmlns="http://www.w3.org/2000/svg">
<g clip-path="url(#clip0_0_13)">
<path d="M24.5007 19.6334C23.866 18.9869 23.1005 18.6413 22.2892 18.6413C21.4845 18.6413 20.7124 18.9805 20.0516 19.627L17.9841 21.6431C17.814 21.5535 17.6438 21.4703 17.4803 21.3871C17.2447 21.2719 17.0223 21.1631 16.8325 21.0479C14.8959 19.8446 13.1359 18.2765 11.4479 16.2475C10.63 15.2362 10.0804 14.3849 9.68131 13.5209C10.2178 13.0408 10.7151 12.5416 11.1992 12.0615C11.3824 11.8823 11.5656 11.6967 11.7488 11.5175C13.1228 10.1734 13.1228 8.43245 11.7488 7.08833L9.96264 5.34099C9.75982 5.14257 9.55045 4.93776 9.35417 4.73294C8.9616 4.33611 8.54941 3.92647 8.12413 3.54244C7.48948 2.92799 6.73052 2.60156 5.9323 2.60156C5.13409 2.60156 4.36204 2.92799 3.70776 3.54244C3.70122 3.54884 3.70122 3.54884 3.69468 3.55524L1.47014 5.75062C0.632666 6.56989 0.155044 7.56837 0.05036 8.72687C-0.106666 10.5958 0.456011 12.3368 0.887834 13.4761C1.94776 16.2731 3.53111 18.8653 5.89305 21.6431C8.75878 24.9906 12.2068 27.634 16.1456 29.4966C17.6504 30.1942 19.659 31.0199 21.9032 31.1607C22.0406 31.1671 22.1845 31.1735 22.3154 31.1735C23.8268 31.1735 25.0961 30.6423 26.0906 29.5862C26.0971 29.5734 26.1102 29.567 26.1167 29.5542C26.4569 29.151 26.8495 28.7861 27.2617 28.3957C27.543 28.1333 27.8309 27.8581 28.1123 27.57C28.76 26.9108 29.1002 26.1427 29.1002 25.3554C29.1002 24.5618 28.7535 23.8001 28.0926 23.1601L24.5007 19.6334ZM26.843 26.3731C26.8364 26.3731 26.8364 26.3795 26.843 26.3731C26.5878 26.642 26.3261 26.8852 26.0448 27.154C25.6195 27.5508 25.1877 27.9669 24.782 28.4341C24.1212 29.1254 23.3426 29.4518 22.3219 29.4518C22.2238 29.4518 22.1191 29.4518 22.021 29.4454C20.0778 29.3238 18.272 28.5813 16.9176 27.9477C13.2144 26.1939 9.96265 23.7041 7.26048 20.5486C5.0294 17.918 3.53765 15.4858 2.5497 12.8744C1.94122 11.2807 1.71876 10.039 1.81691 8.86768C1.88233 8.11882 2.17676 7.49797 2.71981 6.96672L4.95089 4.78414C5.27148 4.48972 5.61171 4.32971 5.94539 4.32971C6.35758 4.32971 6.69126 4.57293 6.90063 4.77774C6.90718 4.78414 6.91372 4.79054 6.92026 4.79694C7.31937 5.16177 7.69885 5.53941 8.09796 5.94264C8.30078 6.14746 8.51015 6.35227 8.71952 6.56349L10.5057 8.31084C11.1992 8.98929 11.1992 9.61654 10.5057 10.295C10.316 10.4806 10.1328 10.6662 9.94302 10.8454C9.39342 11.3959 8.87 11.9079 8.30078 12.4072C8.2877 12.42 8.27461 12.4264 8.26807 12.4392C7.70539 12.9896 7.81008 13.5273 7.92785 13.8921C7.93439 13.9113 7.94093 13.9305 7.94747 13.9497C8.41201 15.0506 9.06629 16.0875 10.0608 17.3228L10.0673 17.3292C11.8731 19.5054 13.7771 21.2015 15.8773 22.5008C16.1456 22.6672 16.4204 22.8016 16.6821 22.9296C16.9176 23.0449 17.1401 23.1537 17.3298 23.2689C17.356 23.2817 17.3821 23.3009 17.4083 23.3137C17.6308 23.4225 17.8401 23.4737 18.056 23.4737C18.5991 23.4737 18.9393 23.1409 19.0505 23.0321L21.2882 20.8431C21.5106 20.6255 21.8639 20.363 22.2761 20.363C22.6818 20.363 23.0155 20.6127 23.2183 20.8303C23.2248 20.8367 23.2248 20.8367 23.2314 20.8431L26.8364 24.3698C27.5103 25.0226 27.5103 25.6947 26.843 26.3731Z" fill="#0067FF"/>
<path d="M16.7544 8.06152C18.4686 8.34314 20.0258 9.13681 21.2689 10.3529C22.512 11.569 23.3168 13.0923 23.6112 14.7693C23.6832 15.1917 24.0561 15.4861 24.4814 15.4861C24.5337 15.4861 24.5795 15.4797 24.6319 15.4733C25.116 15.3965 25.4366 14.9485 25.3581 14.4748C25.0048 12.4459 24.0234 10.5961 22.5251 9.13041C21.0268 7.66469 19.136 6.70461 17.0619 6.35898C16.5777 6.28217 16.1263 6.5958 16.0412 7.06304C15.9562 7.53028 16.2702 7.98471 16.7544 8.06152Z" fill="#0067FF"/>
<path d="M30.9646 14.2251C30.3823 10.8841 28.7728 7.8438 26.2996 5.4244C23.8264 3.00501 20.7186 1.43048 17.3033 0.860829C16.8257 0.777623 16.3742 1.09765 16.2892 1.56489C16.2106 2.03853 16.5312 2.48016 17.0154 2.56337C20.0643 3.06901 22.845 4.48353 25.0565 6.6405C27.2679 8.80388 28.7073 11.5241 29.2242 14.5068C29.2962 14.9292 29.6691 15.2236 30.0944 15.2236C30.1467 15.2236 30.1925 15.2172 30.2449 15.2108C30.7225 15.1404 31.0496 14.6924 30.9646 14.2251Z" fill="#0067FF"/>
</g>
<defs>
<clipPath id="clip0_0_13">
<rect width="31" height="30.3261" fill="white" transform="translate(0 0.847656)"/>
</clipPath>
</defs>
</svg>
