<svg width="40" height="40" viewBox="0 0 40 40" fill="none" xmlns="http://www.w3.org/2000/svg">
<g clip-path="url(#clip0_0_159)">
<path d="M26.937 23.532L21.3989 19.3492V10.8288C21.3989 9.97204 20.7113 9.27954 19.8605 9.27954C19.0098 9.27954 18.3221 9.97204 18.3221 10.8288V20.1239C18.3221 20.6119 18.5498 21.072 18.9375 21.3633L25.0909 26.0109C25.3678 26.22 25.6909 26.3207 26.0124 26.3207C26.4816 26.3207 26.9431 26.1085 27.2446 25.6995C27.7555 25.0162 27.617 24.0449 26.937 23.532Z" fill="#4C40F7"/>
<path d="M19.8601 0C8.90859 0 0 8.97133 0 20C0 31.0287 8.90859 40 19.8601 40C30.8117 40 39.7203 31.0287 39.7203 20C39.7203 8.97133 30.8117 0 19.8601 0ZM19.8601 36.9016C10.6069 36.9016 3.07669 29.3184 3.07669 20C3.07669 10.6816 10.6069 3.09836 19.8601 3.09836C29.1149 3.09836 36.6436 10.6816 36.6436 20C36.6436 29.3184 29.1133 36.9016 19.8601 36.9016Z" fill="#4C40F7"/>
</g>
<defs>
<clipPath id="clip0_0_159">
<rect width="39.7203" height="40" fill="white"/>
</clipPath>
</defs>
</svg>
